<?xml version="1.0" encoding="UTF-8" standalone="no"?>
<!-- Created with Inkscape (http://www.inkscape.org/) -->
<svg
   xmlns:svg="http://www.w3.org/2000/svg"
   xmlns="http://www.w3.org/2000/svg"
   version="1.0"
   width="550"
   height="550"
   id="svg2">
  <defs
     id="defs1941" />
  <path
     d="M 60.635185,380.58206 L 79.68133,399.40674 L 72.815859,403.83607 L 67.943589,398.9638 L 60.856652,406.27221 L 57.091716,403.39314 L 50.890646,410.92301 L 55.762915,414.90941 L 51.99798,418.45288 L 55.319982,420.44608 L 48.675978,435.50582 L 41.367574,436.61316 L 33.173302,427.75449 L 42.696374,421.55342 L 39.595839,418.23141 L 43.582242,415.35234 L 38.488505,409.15127 L 33.173302,408.26541 L 22.764362,421.33195 L 18.77796,419.33875 L 36.495304,401.39994 L 26.086364,387.89046 L 26.086364,385.01139 L 34.280636,380.58206 L 39.152906,388.77633 L 44.246642,386.11873 L 49.783312,390.76953 L 60.635185,380.58206 z "
     style="fill:yellow;fill-opacity:1;fill-rule:evenodd;stroke:black;stroke-width:0.2;stroke-linecap:butt;stroke-linejoin:miter;stroke-miterlimit:4;stroke-dasharray:none;stroke-opacity:1"
     id="Padre Hurtado" />
  <path
     d="M 79.61585,399.26808 L 53.586763,374.07864 L 66.601308,363.16321 L 53.166939,353.50726 L 57.785004,338.3936 C 58.764593,323.8397 52.827545,298.21918 60.723772,294.7319 L 95.56917,285.49577 L 77.51673,279.61823 L 109.00353,259.04686 L 101.4621,245.42184 L 101.4467,240.5746 L 134.19297,247.29178 L 133.77315,252.7495 L 140.4848,247.08464 L 140.69194,249.81626 L 153.50488,254.00897 L 150.89343,268.28852 L 142.78553,268.48459 L 142.58946,287.17506 C 141.0501,286.82132 139.51075,289.42004 137.97139,294.31207 L 132.09385,309.42574 L 153.50488,309.42574 L 160.22206,314.88345 L 100.60705,403.46632 L 79.61585,399.26808 z "
     style="fill:#fc0;fill-opacity:1;fill-rule:evenodd;stroke:black;stroke-width:0.2;stroke-linecap:butt;stroke-linejoin:miter;stroke-miterlimit:4;stroke-dasharray:none;stroke-opacity:1"
     id="Maipu" />
  <path
     d="M 153.50488,254.00897 L 150.89343,268.28852 L 142.78553,268.48459 L 142.58946,287.17506 C 141.0501,286.82132 139.51075,289.42004 137.97139,294.31207 L 132.09385,309.42574 L 153.50488,309.42574 L 160.22206,314.88345 L 149.40293,331.00142 L 174.89472,342.32463 L 175.36076,329.05733 L 199.76448,263.34476 L 199.3235,258.52093 L 166.09575,267.05866 L 153.50488,254.00897 z "
     style="fill:#ffe680;fill-opacity:1;fill-rule:evenodd;stroke:black;stroke-width:0.2;stroke-linecap:butt;stroke-linejoin:miter;stroke-miterlimit:4;stroke-dasharray:none;stroke-opacity:1"
     id="Cerrillos" />
  <path
     d="M 141.54401,227.1701 L 142.25065,247.19784 L 140.40412,247.06594 L 140.66791,250.09954 L 153.46176,254.0564 L 165.99183,267.11405 L 199.75706,258.40895 L 215.32072,258.67274 L 214.92503,249.96764 L 206.74752,250.49523 C 208.50275,245.42574 207.71475,230.18333 208.19836,220.02738 L 206.21993,219.4998 L 206.21993,210.26712 L 190.39248,211.05849 L 190.39248,216.07052 L 172.44815,217.15313 L 173.37142,230.60646 C 165.74022,233.79492 163.81238,232.50813 160.84791,232.02987 L 141.54401,227.1701 z "
     style="fill:#fea;fill-opacity:1;fill-rule:evenodd;stroke:black;stroke-width:0.2;stroke-linecap:butt;stroke-linejoin:miter;stroke-miterlimit:4;stroke-dasharray:none;stroke-opacity:1"
     id="Estación Central" />
  <path
     d="M 70.443493,86.363211 L 91.0299,105.9535 L 97.33864,113.25836 L 107.96388,121.22729 L 76.42019,154.09913 L 75.75611,171.69719 L 79.74058,172.36127 L 80.07262,174.3535 L 82.39689,178.00593 L 85.38524,181.65835 L 89.36971,184.6467 L 95.01436,185.97486 L 96.34252,182.65447 L 98.66679,185.97486 L 104.31145,187.96709 L 113.2765,188.29913 L 117.593,190.29136 L 126.22601,190.6234 L 129.21436,190.29136 L 128.88232,213.86612 L 131.47702,214.38985 L 131.40854,224.87476 L 141.70461,227.25007 L 142.26282,247.21032 L 140.55162,247.13694 L 133.67458,252.94563 L 134.11736,247.45479 L 100.65902,240.42922 L 99.66291,233.45641 C 98.21118,227.04905 91.38655,230.7905 86.71339,230.46806 C 87.77467,236.36016 82.74266,238.33514 78.41242,240.76126 C 75.76315,235.87395 67.029331,236.46274 60.814368,234.78456 L 59.818251,239.4331 C 52.576157,240.10192 46.848031,234.78724 44.212427,237.10883 C 42.365649,235.57577 43.298881,231.8187 37.90369,233.12437 C 34.158274,233.22968 32.107888,234.49474 35.911457,239.76514 C 32.361575,247.04485 28.374953,243.8428 24.440173,241.88494 L 20.414437,232.34211 L 23.475947,225.08227 L 27.942526,221.50301 C 25.124928,220.83074 23.222913,218.90996 24.772212,212.28283 C 26.729585,209.29811 30.380528,207.47772 26.295463,200.33882 L 31.831319,196.32246 L 30.930875,190.6234 L 46.868738,184.97874 L 46.728044,181.92661 L 51.644844,183.85506 L 55.501747,179.00204 L 53.841553,169.37292 L 57.49398,169.70496 C 58.828678,149.15763 50.91987,120.23665 55.169708,105.9535 L 71.771648,104.62535 L 70.443493,86.363211 z "
     style="fill:#ff7f2a;fill-opacity:1;fill-rule:evenodd;stroke:black;stroke-width:0.2;stroke-linecap:butt;stroke-linejoin:miter;stroke-miterlimit:4;stroke-dasharray:none;stroke-opacity:1"
     id="Pudahuel" />
  <path
     d="M 129.07427,199.50985 L 128.85814,213.87871 L 131.43615,214.46841 L 131.35742,225.01813 L 160.48723,231.9463 C 166.66355,233.97079 170.62772,231.70475 173.39883,230.60791 L 172.46374,217.14599 L 171.90297,201.47809 L 153.32288,199.58858 L 152.77177,203.21013 L 143.63918,199.03748 L 129.07427,199.50985 z "
     style="fill:#ffb380;fill-opacity:1;fill-rule:evenodd;stroke:black;stroke-width:0.2;stroke-linecap:butt;stroke-linejoin:miter;stroke-miterlimit:4;stroke-dasharray:none;stroke-opacity:1"
     id="Lo Prado " />
  <path
     d="M 75.75611,171.69719 L 75.90466,166.60805 L 88.71817,166.71394 L 89.14176,168.30239 L 93.80121,168.40829 L 101.00219,164.8078 L 112.33314,164.7019 L 142.30192,164.7019 L 145.47882,165.97267 L 150.13828,163.00756 L 152.99749,163.00756 L 159.2454,167.77291 L 152.6798,203.24832 L 143.59799,199.12889 L 129.08716,199.59633 L 129.21436,190.29136 L 126.22601,190.6234 L 117.593,190.29136 L 113.2765,188.29913 L 104.31145,187.96709 L 98.66679,185.97486 L 96.34252,182.65447 L 95.01436,185.97486 L 89.36971,184.6467 L 85.38524,181.65835 L 82.39689,178.00593 L 80.07262,174.3535 L 79.74058,172.36127 L 75.75611,171.69719 z "
     style="fill:#f60;fill-opacity:1;fill-rule:evenodd;stroke:black;stroke-width:0.2;stroke-linecap:butt;stroke-linejoin:miter;stroke-miterlimit:4;stroke-dasharray:none;stroke-opacity:1"
     id="Cerro Navia" />
  <path
     d="M 205.21641,261.67364 L 217.51071,262.11273 L 217.51071,258.16099 L 214.87622,258.16099 L 254.83268,259.03916 L 275.68907,249.37935 L 260.54075,195.81134 L 215.3707,183.37524 L 215.75438,186.37108 C 211.65751,186.27689 204.72052,180.33911 204.33825,188.12741 L 205.43596,202.39757 L 190.28763,203.27574 L 190.39248,211.05849 L 206.21993,210.26712 L 206.21993,219.4998 L 208.19836,220.02738 C 207.71475,230.18333 208.50275,245.42574 206.74752,250.49523 L 214.92503,249.96764 L 215.07807,258.67274 L 205.46513,258.62849"
     style="fill:red;fill-opacity:1;fill-rule:evenodd;stroke:black;stroke-width:0.2;stroke-linecap:butt;stroke-linejoin:miter;stroke-miterlimit:4;stroke-dasharray:none;stroke-opacity:1"
     id="Santiago" />
  <path
     d="M 112.13682,124.12066 L 107.96388,121.22729 L 76.42019,154.09913 L 75.90466,166.60805 L 88.71817,166.71394 L 89.14176,168.30239 L 93.80121,168.40829 L 101.00219,164.8078 L 112.33314,164.7019 L 142.30192,164.7019 L 145.47882,165.97267 L 150.13828,163.00756 L 152.99749,163.00756 L 153.01072,160.54628 L 156.45185,160.71414 L 163.08232,157.02122 L 174.83252,157.02122 L 184.23268,164.07134 L 190.61136,170.70181 L 198.92043,175.9894 L 215.3707,183.37524 L 215.45463,181.19306 L 206.1384,171.20539 L 204.29194,152.40507 L 202.44548,148.54429 L 191.11494,128.06537 L 186.58272,116.39911 L 184.98805,119.08487 L 183.7291,119.08487 L 183.22552,117.07055 L 177.09863,120.09203 L 173.23785,120.17596 L 164.92878,131.00292 L 161.73944,131.08685 L 159.22154,129.8279 L 153.01072,134.19226 L 147.89099,134.19226 L 147.72313,132.93331 L 144.53379,132.76545 L 144.27036,134.09913 L 141.34445,133.94047 L 141.09266,133.26903 L 138.23904,133.1851 L 137.5676,134.19226 L 134.71398,134.0244 L 133.79076,135.45121 L 129.25854,130.33148 L 127.07636,130.24755 L 125.98527,128.9886 L 124.97811,130.33148 L 118.17978,130.33148 L 115.24223,127.22607 L 115.1583,124.20459 L 112.13682,124.12066 z "
     style="fill:#d45500;fill-opacity:1;fill-rule:evenodd;stroke:black;stroke-width:0.2;stroke-linecap:butt;stroke-linejoin:miter;stroke-miterlimit:4;stroke-dasharray:none;stroke-opacity:1"
     id="Renca" />
  <path
     d="M 215.75438,186.37108 L 215.3707,183.37524 L 198.92043,175.9894 L 190.61136,170.70181 L 184.23268,164.07134 L 174.83252,157.02122 L 163.08232,157.02122 L 156.45185,160.71414 L 153.01072,160.54628 L 152.99749,163.00756 L 159.2454,167.77291 L 153.32288,199.58858 L 171.90297,201.47809 L 172.46374,217.14599 L 190.39248,216.07052 L 190.39248,211.05849 L 190.28763,203.27574 L 205.43596,202.39757 L 204.33825,188.12741 C 204.72052,180.33911 211.65751,186.27689 215.75438,186.37108 z "
     style="fill:#ff8080;fill-opacity:1;fill-rule:evenodd;stroke:black;stroke-width:0.2;stroke-linecap:butt;stroke-linejoin:miter;stroke-miterlimit:4;stroke-dasharray:none;stroke-opacity:1"
     id="Quinta Normal" />
  <path
     d="M 260.54075,195.81134 L 240.63955,190.30357 L 242.44017,169.67826 L 238.34785,169.51457 L 238.51154,152.8179 L 235.56507,152.8179 L 232.4549,150.5262 L 232.78229,145.12433 L 230.81798,142.99633 L 232.32395,142.18557 L 232.16218,115.494 L 231.51512,115.33224 L 231.51512,111.44983 L 232.32395,111.28806 L 232.80925,108.37625 L 256.16682,119.50301 L 292.21359,147.87933 L 292.11412,153.42511 L 282.83195,159.5007 L 281.31305,163.38234 L 273.04349,171.98944 L 269.49939,171.98944 L 264.43639,175.7023 L 263.42379,182.45297 L 259.54215,189.8787 L 260.72352,189.8787 L 260.54075,195.81134 z "
     style="fill:#c83737;fill-opacity:1;fill-rule:evenodd;stroke:black;stroke-width:0.2;stroke-linecap:butt;stroke-linejoin:miter;stroke-miterlimit:4;stroke-dasharray:none;stroke-opacity:1"
     id="Recoleta" />
  <path
     d="M 212.15699,144.46956 L 202.44548,148.54429 L 204.29194,152.40507 L 206.1384,171.20539 L 215.45463,181.19306 L 215.3707,183.37524 L 240.63955,190.30357 L 242.44017,169.67826 L 238.34785,169.51457 L 238.51154,152.8179 L 235.56507,152.8179 L 232.4549,150.5262 L 232.78229,145.12433 L 230.81798,142.99633 L 219.68687,142.66894 L 212.15699,144.46956 z "
     style="fill:#a00;fill-opacity:1;fill-rule:evenodd;stroke:black;stroke-width:0.2;stroke-linecap:butt;stroke-linejoin:miter;stroke-miterlimit:4;stroke-dasharray:none;stroke-opacity:1"
     id="Independencia" />
  <path
     d="M 94.02798,103.43048 L 91.0299,105.9535 L 97.33864,113.25836 L 112.13682,124.12066 L 115.1583,124.20459 L 115.24223,127.22607 L 118.17978,130.33148 L 124.97811,130.33148 L 125.98527,128.9886 L 127.07636,130.24755 L 129.25854,130.33148 L 133.79076,135.45121 L 134.71398,134.0244 L 137.5676,134.19226 L 138.23904,133.1851 L 141.09266,133.26903 L 141.34445,133.94047 L 144.27036,134.09913 L 144.53379,132.76545 L 147.72313,132.93331 L 147.89099,134.19226 L 153.01072,134.19226 L 159.22154,129.8279 L 161.73944,131.08685 L 164.92878,131.00292 L 173.23785,120.17596 L 177.09863,120.09203 L 183.22552,117.07055 L 183.7291,119.08487 L 184.98805,119.08487 L 186.58272,116.39911 L 178.325,95.385529 L 178.325,92.820475 L 192.54939,92.703882 L 187.1861,77.546741 L 187.1861,71.367292 L 189.05159,70.084765 L 188.935,66.703557 L 191.61664,65.887403 C 197.23388,50.193372 197.78761,58.308874 202.34324,53.06213 C 202.58552,51.106863 202.17075,49.62091 200.24456,49.214549 L 200.24456,43.618066 L 200.24456,37.788397 L 195.23104,37.788397 L 193.24895,33.707628 C 193.06703,31.951284 194.08053,32.286921 195.11445,32.658288 L 195.9306,35.573123 C 195.42169,32.702132 198.82785,28.288841 188.8184,29.160486 C 186.52309,27.15196 186.94888,23.588516 180.77346,23.797191 L 177.85863,25.546091 L 173.77786,25.196311 L 168.53115,20.765763 L 160.01984,20.998949 L 158.03775,31.725541 L 132.03742,38.721144 L 153.84039,67.16993 L 151.39193,67.16993 L 151.50852,70.084765 L 140.78193,70.084765 L 140.89852,65.421029 L 134.01951,65.421029 L 134.13611,74.39872 L 132.62039,74.165533 C 131.21425,73.396053 132.81235,74.82968 127.2571,71.017512 L 127.49028,66.936743 C 124.8937,64.17636 121.17383,65.534745 117.69644,66.003996 C 119.71804,67.442795 121.98961,69.194047 122.82655,69.152018 L 116.18072,69.035424 C 116.05819,70.128968 115.12577,70.772569 112.21655,70.317952 L 107.55281,83.026631 L 102.5393,83.026631 L 102.18952,93.636629 L 94.02798,102.26454 L 94.02798,103.43048 z "
     style="fill:#c87137;fill-opacity:1;fill-rule:evenodd;stroke:black;stroke-width:0.2;stroke-linecap:butt;stroke-linejoin:miter;stroke-miterlimit:4;stroke-dasharray:none;stroke-opacity:1"
     id="Quilicura" />
  <path
     d="M 230.81798,142.99633 L 232.32395,142.18557 L 232.16218,115.494 L 231.51512,115.33224 L 231.51512,111.44983 L 232.32395,111.28806 L 232.80925,108.37625 L 199.64701,93.817215 L 192.54939,92.703882 L 178.325,92.820475 L 178.325,95.385529 L 186.58272,116.39911 L 191.11494,128.06537 L 202.44548,148.54429 L 212.15699,144.46956 L 219.68687,142.66894 L 230.81798,142.99633 z "
     style="fill:#a40;fill-opacity:1;fill-rule:evenodd;stroke:black;stroke-width:0.2;stroke-linecap:butt;stroke-linejoin:miter;stroke-miterlimit:4;stroke-dasharray:none;stroke-opacity:1"
     id="Conchalí" />
  <path
     d="M 175.00449,341.91395 L 201.04899,353.23765 L 191.99003,378.90469 L 188.21547,377.39486 L 188.21547,390.60584 L 181.42125,404.57173 L 215.01488,418.91507 L 229.73568,421.93472 L 214.63742,483.46013 L 220.29927,490.25434 L 219.54435,491.38671 L 221.43164,493.65145 L 216.5247,495.16128 L 227.8484,516.67629 L 227.09348,526.49016 L 223.31892,526.49016 L 221.80909,518.18612 L 218.03453,518.56358 L 217.27961,515.16647 L 192.36749,517.43121 L 190.85766,512.90173 L 188.97038,513.27919 L 190.48021,520.45086 L 195.38714,523.47051 L 198.40679,523.47051 L 199.1617,524.98034 L 204.06864,525.35779 L 203.31373,526.86762 L 187.46055,531.3971 L 182.17616,531.01964 L 168.58773,523.47051 L 172.73975,513.65664 L 168.21028,489.87689 L 164.81317,489.12197 L 160.66115,477.04337 L 162.92588,471.38152 L 158.77386,470.62661 L 156.13167,472.51389 L 149.71491,471.38152 L 150.84728,464.96476 L 155.75421,451.37633 L 153.48947,447.97922 L 150.09237,447.97922 L 148.96,443.44974 L 148.20508,440.43009 L 144.80797,438.16535 L 147.82763,430.61622 L 142.16578,425.33183 L 143.67561,418.16016 L 145.94034,415.51796 L 145.18543,410.61103 L 150.84728,404.94918 L 152.73456,378.90469 L 160.66115,365.31625 L 167.45536,369.46828 L 175.00449,341.91395 z "
     style="fill:#4a0;fill-opacity:1;fill-rule:evenodd;stroke:black;stroke-width:0.2;stroke-linecap:butt;stroke-linejoin:miter;stroke-miterlimit:4;stroke-dasharray:none;stroke-opacity:1"
     id="San Bernardo" />
  <path
     d="M 201.04899,353.23765 L 224.24958,362.85961 L 241.59986,365.57712 L 229.73568,421.93472 L 215.01488,418.91507 L 181.42125,404.57173 L 188.21547,390.60584 L 188.21547,377.39486 L 191.99003,378.90469 L 201.04899,353.23765 z "
     style="fill:#55d400;fill-opacity:1;fill-rule:evenodd;stroke:black;stroke-width:0.2;stroke-linecap:butt;stroke-linejoin:miter;stroke-miterlimit:4;stroke-dasharray:none;stroke-opacity:1"
     id="El Bosque" />
  <path
     d="M 241.59986,365.57712 L 224.24958,362.85961 L 201.04899,353.23765 L 218.39647,309.34548 L 252.45432,318.93726 L 241.59986,365.57712 z "
     style="fill:#b3ff80;fill-opacity:1;fill-rule:evenodd;stroke:black;stroke-width:0.2;stroke-linecap:butt;stroke-linejoin:miter;stroke-miterlimit:4;stroke-dasharray:none;stroke-opacity:1"
     id="La Cisterna" />
  <path
     d="M 175.36076,329.05733 L 175.00449,341.91395 L 201.04899,353.23765 L 218.39647,309.34548 L 187.56262,296.20104 L 175.36076,329.05733 z "
     style="fill:#c8ab37;fill-opacity:1;fill-rule:evenodd;stroke:black;stroke-width:0.2;stroke-linecap:butt;stroke-linejoin:miter;stroke-miterlimit:4;stroke-dasharray:none;stroke-opacity:1"
     id="Lo Espejo" />
  <path
     d="M 217.51071,258.16099 L 238.01795,258.67965 L 218.39647,309.34548 L 187.56262,296.20104 L 199.76448,263.34476 L 199.3235,258.52093 L 205.46513,258.62849 L 205.21641,261.67364 L 217.51071,262.11273 L 217.51071,258.16099 z "
     style="fill:#d3bc5f;fill-opacity:1;fill-rule:evenodd;stroke:black;stroke-width:0.2;stroke-linecap:butt;stroke-linejoin:miter;stroke-miterlimit:4;stroke-dasharray:none;stroke-opacity:1"
     id="Pedro Aguirre Cerda" />
  <path
     d="M 218.39647,309.34548 L 238.01795,258.67965 L 254.81241,259.03854 L 261.60692,319.90388 L 256.09655,319.97611 L 218.39647,309.34548 z "
     style="fill:#efa;fill-opacity:1;fill-rule:evenodd;stroke:black;stroke-width:0.2;stroke-linecap:butt;stroke-linejoin:miter;stroke-miterlimit:4;stroke-dasharray:none;stroke-opacity:1"
     id="San Miguel" />
  <path
     d="M 261.60692,319.90388 L 256.09655,319.97611 L 252.45432,318.93726 L 241.59986,365.57712 L 239.37745,376.13154 L 269.78528,379.78112 L 261.60692,319.90388 z "
     style="fill:#aade87;fill-opacity:1;fill-rule:evenodd;stroke:black;stroke-width:0.2;stroke-linecap:butt;stroke-linejoin:miter;stroke-miterlimit:4;stroke-dasharray:none;stroke-opacity:1"
     id="San Ramón" />
  <path
     d="M 261.60692,319.90388 L 269.77442,379.80283 L 274.51736,380.36807 L 292.72536,375.77188 L 289.3666,361.80652 L 294.6699,361.80652 L 293.07891,311.60194 L 286.3614,311.60194 L 273.29431,319.14622 L 261.60692,319.90388 z "
     style="fill:#00d4aa;fill-opacity:1;fill-rule:evenodd;stroke:black;stroke-width:0.2;stroke-linecap:butt;stroke-linejoin:miter;stroke-miterlimit:4;stroke-dasharray:none;stroke-opacity:1"
     id="La Granja" />
  <path
     d="M 261.60692,319.90388 L 254.83268,259.03916 L 275.68907,249.37935 L 278.00003,255.7807 L 280.77318,268.77984 L 285.45287,280.56573 L 289.78592,304.83078 L 292.90571,307.95058 L 293.07891,311.60194 L 286.3614,311.60194 L 273.29431,319.14622 L 261.60692,319.90388 z "
     style="fill:#5fd38d;fill-opacity:1;fill-rule:evenodd;stroke:black;stroke-width:0.2;stroke-linecap:butt;stroke-linejoin:miter;stroke-miterlimit:4;stroke-dasharray:none;stroke-opacity:1"
     id="San Joaquín" />
  <path
     d="M 292.72536,375.77188 L 274.51736,380.36807 L 239.3877,376.13763 L 229.73677,421.9327 L 221.60509,455.08776 L 254.02359,458.063 L 251.51512,475.82571 L 254.56596,475.82571 L 253.54901,484.09689 L 274.70156,484.09689 L 277.07444,472.16469 L 277.07444,450.26639 L 301.888,445.52062 L 301.00664,437.85961 L 300.39647,423.01215 L 297.00664,418.40198 L 295.58291,398.063 L 294.29478,398.063 L 292.26088,384.97825 L 295.44732,384.97825 L 292.72536,375.77188 z "
     style="fill:#89a02c;fill-opacity:1;fill-rule:evenodd;stroke:black;stroke-width:0.2;stroke-linecap:butt;stroke-linejoin:miter;stroke-miterlimit:4;stroke-dasharray:none;stroke-opacity:1"
     id="La Pintana" />
  <path
     d="M 288.78441,155.70333 L 282.83195,159.5007 L 281.31305,163.38234 L 273.04349,171.98944 L 269.49939,171.98944 L 264.43639,175.7023 L 263.42379,182.45297 L 259.54215,189.8787 L 260.72352,189.8787 L 260.54075,195.81134 L 266.93327,218.38425 L 282.78179,213.34959 L 283.13229,215.27731 L 285.93625,215.45256 L 294.87388,210.72087 L 308.71844,209.49414 L 315.02736,213.87533 L 327.88784,192.11766 L 324.84122,188.81492 L 302.93527,169.18718 L 295.39962,166.38322 L 299.07982,155.86836 L 288.78441,155.70333 z "
     style="fill:#de87cd;fill-opacity:1;fill-rule:evenodd;stroke:black;stroke-width:0.2;stroke-linecap:butt;stroke-linejoin:miter;stroke-miterlimit:4;stroke-dasharray:none;stroke-opacity:1"
     id="Providencia" />
  <path
     d="M 266.93327,218.38425 L 282.78179,213.34959 L 283.13229,215.27731 L 285.93625,215.45256 L 294.87388,210.72087 L 308.71844,209.49414 L 315.02736,213.87533 L 327.8474,192.11766 L 338.6049,198.9658 L 342.32555,218.37785 L 340.86964,230.51038 L 335.85486,246.20178 L 324.53117,253.15776 L 299.13374,252.996 L 277.94226,255.74604 L 275.69306,249.37498 L 266.93327,218.38425 z "
     style="fill:#ff80e5;fill-opacity:1;fill-rule:evenodd;stroke:black;stroke-width:0.2;stroke-linecap:butt;stroke-linejoin:miter;stroke-miterlimit:4;stroke-dasharray:none;stroke-opacity:1"
     id="Ñuñoa" />
  <path
     d="M 327.8474,192.11766 L 338.6049,198.9658 L 342.32555,218.37785 L 340.86964,230.51038 L 352.14712,235.28636 L 371.3974,235.94113 L 382.39756,235.41731 L 392.35008,239.08403 L 394.70726,229.91723 L 448.26756,233.19109 L 448.52947,229.78628 L 445.25561,223.63143 L 440.4103,220.09566 L 438.96981,218.13135 L 435.43404,214.98844 L 435.69595,208.44073 L 420.3743,194.95244 L 409.63605,192.59526 L 401.12402,188.53568 L 383.18328,191.02381 L 382.52851,184.738 L 357.38529,188.01186 L 324.77767,188.66663 L 327.8474,192.11766 z "
     style="fill:#8d5fd3;fill-opacity:1;fill-rule:evenodd;stroke:black;stroke-width:0.2;stroke-linecap:butt;stroke-linejoin:miter;stroke-miterlimit:4;stroke-dasharray:none;stroke-opacity:1"
     id="La Reina" />
  <path
     d="M 289.78592,304.83078 L 285.45287,280.56573 L 280.77318,268.77984 L 277.94226,255.74604 L 299.13374,252.996 L 324.53117,253.15776 L 335.85486,246.20178 L 330.97104,276.30586 L 320.26168,297.3375 L 320.26168,306.24047 L 289.78592,304.83078 z "
     style="fill:#87cdde;fill-opacity:1;fill-rule:evenodd;stroke:black;stroke-width:0.2;stroke-linecap:butt;stroke-linejoin:miter;stroke-miterlimit:4;stroke-dasharray:none;stroke-opacity:1"
     id="Macul" />
  <path
     d="M 409.04442,466.98865 C 405.52946,467.80251 402.61798,466.29948 399.59155,464.7932 C 394.67205,460.23828 391.638,468.52749 387.90799,470.41411 C 382.9927,469.1882 377.84287,466.15465 372.47107,467.71728 C 368.55199,470.68232 364.36013,474.87621 358.83984,472.29196 C 354.78645,468.40234 349.81237,474.61757 350.10287,478.81522 C 346.21452,479.36905 340.99192,477.94333 338.18669,482.5513 C 333.48337,496.86652 334.63193,492.07291 328.59984,491.42405 C 323.98019,492.23688 323.11942,501.50901 316.96434,499.33809 C 315.74472,494.44731 313.26624,498.33795 310.04947,498.80846 C 304.95647,497.21959 301.20053,502.75952 295.85664,500.82589 C 291.22374,502.93302 286.54288,503.2832 281.7652,500.92978 C 276.61491,499.42049 269.42806,500.06171 267.66929,506.13723 L 274.06142,496.33472 L 274.70156,484.09689 L 277.07444,472.16469 L 277.07444,450.26639 L 301.888,445.52062 L 301.00664,437.85961 L 300.39647,423.01215 L 297.00664,418.40198 L 295.58291,398.063 L 308.63526,393.44955 L 317.4741,397.33864 L 328.7878,395.92442 L 328.43425,389.56046 L 363.08248,382.84295 L 349.64745,362.6904 L 368.73934,363.04396 L 375.81041,369.76147 L 380.76015,364.45817 L 382.52792,368.70081 L 387.83122,367.99371 L 392.42741,366.22594 L 394.54873,366.57949 L 394.90229,390.62112 L 384.64924,386.73203 L 382.52792,404.05615 L 379.69949,403.7026 L 379.34594,419.25895 L 384.64924,425.97646 L 386.06345,434.8153 L 395.6094,439.41149 L 400.20559,433.40108 L 438.38936,431.27976 L 438.0358,437.29017 C 436.90032,437.29017 433.39357,437.9052 434.50027,440.1186 C 435.18572,441.48949 435.36508,442.66976 434.85382,444.71479 C 434.4117,446.48329 434.23879,448.90218 432.37895,450.01809 C 430.50759,451.14091 429.8614,451.55666 427.78275,450.7252 C 426.50168,450.21277 424.83603,448.7235 424.24722,451.07875 C 423.65079,453.46448 424.95433,453.42797 424.95433,456.0285 C 424.95433,458.8248 423.35027,458.55565 422.83301,460.62469 C 422.43325,462.2237 421.00453,463.80667 418.94392,463.80667 C 417.32239,463.80667 415.0389,463.74293 414.70128,462.39246 C 414.62578,462.09048 414.05788,457.87972 413.64062,457.79627 C 412.66029,457.6002 408.88341,457.47424 410.10508,459.91759 C 410.75243,461.21228 411.15416,462.7692 410.10508,464.86733 C 409.75153,465.57444 409.39797,466.28154 409.04442,466.98865 z "
     style="fill:blue;fill-opacity:1;fill-rule:evenodd;stroke:black;stroke-width:0.2;stroke-linecap:butt;stroke-linejoin:miter;stroke-miterlimit:4;stroke-dasharray:none;stroke-opacity:1"
     id="Puente Alto" />
  <path
     d="M 334.44465,508.00087 C 334.80081,503.36945 328.84183,511.94833 326.36016,512.00611 C 321.4162,513.36261 316.24929,514.25048 311.54509,516.29813 C 309.03027,519.36521 306.52529,523.37511 302.95612,522.54755 C 298.81856,526.26732 293.05157,524.00317 288.20096,524.12345 C 285.26734,527.12809 277.86536,529.41369 276.4619,523.91075 C 277.08835,520.50763 286.04317,515.20949 277.93977,515.3323 C 272.43043,515.65513 267.54227,511.70271 267.66929,506.13723 C 269.42806,500.06171 276.61491,499.42049 281.7652,500.92978 C 286.54288,503.2832 291.22374,502.93302 295.85664,500.82589 C 301.20053,502.75952 304.95647,497.21959 310.04947,498.80846 C 313.26624,498.33795 315.74472,494.44731 316.96434,499.33809 C 323.11942,501.50901 323.98019,492.23688 328.59984,491.42405 C 334.63193,492.07291 333.48337,496.86652 338.18669,482.5513 C 340.99192,477.94333 346.21452,479.36905 350.10287,478.81522 C 349.81237,474.61757 354.78645,468.40234 358.83984,472.29196 C 364.36013,474.87621 368.55199,470.68232 372.47107,467.71728 C 377.84287,466.15465 382.9927,469.1882 387.90799,470.41411 C 391.638,468.52749 394.67205,460.23828 399.59155,464.7932 C 402.61798,466.29948 405.52946,467.80251 409.04442,466.98865 L 409.75153,466.28155 L 411.16574,469.10997 L 402.68046,469.46353 L 392.07386,472.99906 L 392.07386,480.77724 L 395.6094,483.95922 L 383.23503,486.43409 L 378.99239,490.67673 L 378.99239,485.72698 L 366.26446,487.8483 L 367.32512,483.25211 L 357.07208,488.20186 L 357.77918,500.57623 L 347.87969,504.81887 L 347.17258,496.68714 L 339.39441,500.22267 L 343.28349,505.17242 L 334.44465,508.00087 z M 432.37895,450.01809 C 430.50759,451.14091 429.8614,451.55666 427.78275,450.7252 C 426.50168,450.21277 424.83603,448.7235 424.24722,451.07875 C 423.65079,453.46448 424.95433,453.42797 424.95433,456.0285 C 425.13519,455.93111 425.35167,455.88159 425.49692,455.73633 C 425.84008,455.39317 426.07494,454.86958 426.6524,454.58086 C 427.08075,454.36668 427.62601,454.00312 428.38562,454.00312 C 429.11742,454.00312 429.84923,454.00312 430.58103,454.00312 C 431.18292,454.00312 431.77543,454.02227 432.31425,453.88757 C 432.7841,453.77011 433.42809,453.47169 433.58527,453.07873 C 433.82541,452.4784 434.01114,452.24016 433.81637,451.46106 C 433.60357,450.60985 433.57885,450.69049 432.89199,450.30558 C 432.72097,450.20975 432.54996,450.11392 432.37895,450.01809 z M 434.85382,444.71479 C 433.31896,446.9139 438.89348,441.46428 440.10813,440.77041 C 441.94895,439.87452 443.55756,438.5562 445.13327,437.27536 C 446.92435,435.92112 448.16991,433.84651 450.14329,432.71919 C 451.61794,431.24425 453.8359,432.45628 455.46001,433.02379 C 457.14561,433.94885 459.65756,433.90903 460.26573,431.69106 C 461.37091,430.1943 461.7654,428.38485 461.80578,426.56498 C 462.61113,423.74736 463.47495,428.13399 464.69011,428.54045 C 466.36777,430.05736 468.5502,430.04867 470.1648,428.47388 C 471.73173,426.59786 474.31137,427.53581 476.39941,427.38436 C 478.5235,427.40888 480.82065,427.84918 482.72476,426.61992 C 484.05944,425.32281 484.39191,422.1208 482.6243,420.94492 C 480.94333,420.88494 479.33574,420.29992 477.6238,420.5462 C 475.64314,420.13516 473.67491,421.36456 472.45404,422.8656 C 471.32211,424.1927 469.17735,424.00086 467.76434,423.3275 C 466.00742,422.54949 464.61462,421.089 462.76159,420.43412 C 461.28451,419.83108 459.02879,419.29902 457.79382,420.54295 C 456.24006,422.26678 456.84477,424.15943 456.53309,425.92498 C 455.87627,427.38159 455.95351,428.77707 453.81512,427.78285 C 452.64465,426.6534 450.93425,425.11111 449.43268,426.68173 C 447.15116,429.19693 444.67204,431.53673 442.26947,433.93505 C 440.52367,434.97242 438.13242,434.48643 438.0358,437.29017 C 436.90032,437.29017 433.39357,437.9052 434.50027,440.1186 C 435.18572,441.48949 435.36508,442.66976 434.85382,444.71479 z M 503.14638,408.52924 L 502.40058,407.64173 C 501.19664,406.46158 500.17312,405.11796 499.1345,403.79749 C 498.2864,402.87899 496.99258,402.4094 495.75572,402.62629 C 494.68588,402.648 493.37822,402.82963 492.83108,403.88567 C 491.73109,405.33377 491.34189,407.154 490.51442,408.73984 C 489.68645,410.06425 488.19126,411.28918 486.5313,410.90972 C 485.23832,410.73191 484.23721,409.85312 483.15188,409.22224 C 482.04932,408.70954 480.79433,408.74058 479.6112,408.85746 C 478.66058,409.62853 479.95198,410.46917 480.53039,410.97999 L 480.28801,413.39986 C 483.15501,411.20334 485.73862,416.26171 488.98191,415.01976 C 492.43547,414.95424 493.8773,411.05041 496.56687,409.58631 C 498.89675,411.08881 500.71612,408.496 503.14638,408.52924 z "
     style="fill:#3771c8;fill-opacity:1;fill-rule:evenodd;stroke:black;stroke-width:0.2;stroke-linecap:butt;stroke-linejoin:miter;stroke-miterlimit:4;stroke-dasharray:none;stroke-opacity:1"
     id="Pirque" />
  <path
     d="M 480.28801,413.39986 L 480.53039,410.97999 C 479.95198,410.46917 478.66058,409.62853 479.6112,408.85746 C 480.79433,408.74058 482.04932,408.70954 483.15188,409.22224 C 484.23721,409.85312 485.23832,410.73191 486.5313,410.90972 C 488.19126,411.28918 489.68645,410.06425 490.51442,408.73984 C 491.34189,407.154 491.73109,405.33377 492.83108,403.88567 C 493.37822,402.82963 494.68588,402.648 495.75572,402.62629 C 496.99258,402.4094 498.2864,402.87899 499.1345,403.79749 C 500.17312,405.11796 501.19664,406.46158 502.40058,407.64173 L 503.14638,408.52924 C 506.01787,410.57481 509.14757,409.37969 512.12345,408.32805 C 515.04984,408.92712 517.71162,407.49709 520.35464,406.49789 C 523.28018,406.16868 526.57068,405.83099 529.25651,407.26972 C 531.92472,410.70853 531.78328,403.37713 529.39582,403.40943 C 526.28459,401.57245 523.36181,404.74528 520.17537,404.4497 C 519.19738,403.15059 516.71915,402.97784 514.78372,401.9789 C 512.08941,402.69367 511.89207,398.07115 510.11585,398.89992 C 508.88334,402.30149 504.08471,401.46792 503.31073,398.24119 C 500.82395,396.77078 502.76315,390.82219 499.25435,391.3505 C 498.50638,393.15051 496.89204,394.86595 496.79362,396.76214 C 500.0599,400.08058 493.75916,399.75891 491.76263,399.29151 C 488.92313,400.76085 485.3933,400.49358 484.49412,396.83733 C 482.58239,397.55433 482.13999,401.05473 479.75705,401.82707 C 481.36253,403.48306 481.54981,406.79717 478.49379,408.32805 C 477.41298,409.72056 476.98483,415.48957 474.3451,412.42306 C 473.31288,409.27072 471.77495,412.61908 472.47008,414.22859 C 471.26177,417.68433 466.57348,417.87136 466.39282,413.70926 C 465.31517,415.39302 462.9455,419.75914 460.76387,416.10634 C 459.47131,411.90518 455.60488,419.79826 453.38249,415.95362 C 449.11058,413.75103 446.56082,418.87962 446.23676,422.39759 C 445.9127,425.91556 444.69118,431.55136 445.89647,430.35222 C 447.10176,429.15308 448.29192,427.93933 449.43268,426.68173 C 450.93425,425.11111 452.64465,426.6534 453.81512,427.78285 C 455.95351,428.77707 455.87627,427.38159 456.53309,425.92498 C 456.84477,424.15943 456.24006,422.26678 457.79382,420.54295 C 459.02879,419.29902 461.28451,419.83108 462.76159,420.43412 C 464.61462,421.089 466.00742,422.54949 467.76434,423.3275 C 469.17735,424.00086 471.32211,424.1927 472.45404,422.8656 C 473.67491,421.36456 475.64314,420.13516 477.6238,420.5462 C 479.33574,420.29992 480.94333,420.88494 482.6243,420.94492 L 482.72609,419.19478 C 482.1957,417.37821 478.15938,415.49072 480.28801,413.39986 z "
     style="fill:#04a;fill-opacity:1;fill-rule:evenodd;stroke:black;stroke-width:0.2;stroke-linecap:butt;stroke-linejoin:miter;stroke-miterlimit:4;stroke-dasharray:none;stroke-opacity:1"
     id="San José de Maipo" />
  <path
     d="M 289.78592,304.83078 L 292.90571,307.95058 L 293.07891,311.60194 L 294.6699,361.80652 L 289.3666,361.80652 L 292.72536,375.77188 L 295.44732,384.97825 L 292.26088,384.97825 L 294.29478,398.063 L 295.58291,398.063 L 308.63526,393.44955 L 317.4741,397.33864 L 328.7878,395.92442 L 328.43425,389.56046 L 363.08248,382.84295 L 349.64745,362.6904 L 368.73934,363.04396 L 375.81041,369.76147 L 380.55384,364.71254 L 386.08121,359.99405 L 382.98049,351.23114 L 375.44655,345.5009 L 375.97017,343.54675 L 384.059,343.54675 L 383.51975,333.03126 L 407.51663,335.18829 L 407.11219,325.34687 L 393.49598,324.26836 L 393.22635,309.57364 L 397.13596,304.85515 L 391.06933,304.85515 L 387.69898,308.2255 L 383.11531,309.70845 L 357.63547,309.1692 L 320.32572,306.23699 L 289.78592,304.83078 z "
     style="fill:#00aad4;fill-opacity:1;fill-rule:evenodd;stroke:black;stroke-width:0.2;stroke-linecap:butt;stroke-linejoin:miter;stroke-miterlimit:4;stroke-dasharray:none;stroke-opacity:1"
     id="La Florida" />
  <path
     d="M 448.26756,233.19109 L 394.70726,229.91723 L 392.35008,239.08403 L 382.39756,235.41731 L 371.3974,235.94113 L 352.14712,235.28636 L 340.86964,230.51038 L 335.85486,246.20178 L 330.97104,276.30586 L 320.26168,297.3375 L 320.32572,306.23699 L 357.63547,309.1692 L 383.11531,309.70845 L 387.69898,308.2255 L 391.06933,304.85515 L 397.13596,304.85515 L 399.17318,301.47412 L 401.58236,301.7418 L 413.09285,291.56974 L 424.06798,291.30205 L 428.08327,287.82213 L 434.77542,287.55445 L 434.77542,284.07453 L 446.82129,289.69593 L 454.04881,290.49899 L 465.02393,281.12998 L 473.85757,281.12998 L 478.14054,277.65007 L 482.15583,277.11469 L 493.13096,281.93304 L 500.09079,281.66536 L 509.4598,276.57932 L 515.61658,276.84701 L 515.34889,271.76098 L 513.47509,267.21031 L 504.37377,266.13957 L 501.42922,263.7304 L 496.87856,263.46271 L 490.4541,255.43213 L 488.04492,255.43213 L 485.36806,253.02296 L 471.44839,252.48759 L 465.02393,247.93693 L 464.48856,244.18932 L 458.59947,237.76486 L 448.26756,233.19109 z "
     style="fill:#59f;fill-opacity:1;fill-rule:evenodd;stroke:black;stroke-width:0.2;stroke-linecap:butt;stroke-linejoin:miter;stroke-miterlimit:4;stroke-dasharray:none;stroke-opacity:1"
     id="Peñalolen" />
  <path
     d="M 513.47509,267.21031 L 504.37377,266.13957 L 501.42922,263.7304 L 496.87856,263.46271 L 490.4541,255.43213 L 488.04492,255.43213 L 485.36806,253.02296 L 471.44839,252.48759 L 465.02393,247.93693 L 464.48856,244.18932 L 458.59947,237.76486 L 448.26756,233.19109 L 448.52947,229.78628 L 445.25561,223.63143 L 440.4103,220.09566 L 438.96981,218.13135 L 435.43404,214.98844 L 435.69595,208.44073 L 420.3743,194.95244 L 409.63605,192.59526 L 401.12402,188.53568 L 383.18328,191.02381 L 382.52851,184.738 L 357.38529,188.01186 L 324.80944,188.74078 L 302.93527,169.18718 L 295.39962,166.38322 L 299.07982,155.86836 L 384.91243,119.14919 L 393.42268,108.74778 L 413.27993,99.291947 L 424.39053,98.109964 L 431.71879,93.382049 L 435.97392,93.618444 L 441.17463,89.126925 L 452.52162,90.781695 L 460.79547,90.781695 L 460.79547,97.637172 L 455.35837,101.41951 L 452.99441,108.03859 L 452.99441,110.63894 L 458.66791,117.73082 L 460.55908,121.74954 L 460.08629,126.95025 L 462.92304,128.36862 L 464.34141,128.13223 L 474.03364,134.27852 L 490.58134,137.58806 L 493.41809,141.84318 L 492.9453,163.59159 L 494.36367,164.77357 L 494.36367,169.50149 L 506.65625,178.01174 L 517.53046,179.43011 L 522.02198,197.15979 L 520.84,202.83329 L 525.56791,212.05273 L 526.74989,229.54601 L 519.65802,235.45591 L 517.29406,241.83859 L 520.6036,246.56651 L 519.65802,259.56827 L 517.53046,259.56827 L 513.47509,267.21031 z "
     style="fill:#aa00d4;fill-opacity:1;fill-rule:evenodd;stroke:black;stroke-width:0.2;stroke-linecap:butt;stroke-linejoin:miter;stroke-miterlimit:4;stroke-dasharray:none;stroke-opacity:1"
     id="Las Condes" />
  <path
     d="M 292.52407,138.04504 C 291.86159,141.24862 292.63484,144.66478 292.21359,147.87933 L 292.11412,153.42511 L 288.78441,155.70333 L 299.07982,155.86836 L 384.91243,119.14919 L 393.42268,108.74778 L 406.26312,102.54086 L 402.90097,98.609497 L 377.64941,100.37124 L 370.01522,95.086024 L 360.42354,85.885843 L 354.15959,82.558118 L 346.72115,82.558118 L 345.54666,81.187878 L 342.80618,80.796381 L 341.04444,78.055902 L 337.52097,78.447399 L 334.78049,80.600632 L 331.69142,74.517144 L 325.60284,71.214892 L 323.44961,75.912857 L 320.70913,77.478845 L 312.87919,78.066091 L 307.20248,84.525792 L 302.30877,89.615254 L 306.81099,93.334476 L 306.02799,104.68789 L 303.28751,107.23262 L 303.48326,114.08382 L 303.65167,114.33275 L 299.45728,116.23929 L 299.26662,120.05237 L 301.36382,123.29349 L 301.17316,128.25049 L 296.59747,132.06357 L 292.52407,138.04504 z "
     style="fill:#a02c89;fill-opacity:1;fill-rule:evenodd;stroke:black;stroke-width:0.2;stroke-linecap:butt;stroke-linejoin:miter;stroke-miterlimit:4;stroke-dasharray:none;stroke-opacity:1"
     id="Vitacura" />
  <path
     d="M 334.78049,80.600632 L 337.52097,78.447399 L 341.04444,78.055902 L 342.80618,80.796381 L 345.54666,81.187878 L 346.72115,82.558118 L 354.15959,82.558118 L 360.42354,85.885843 L 370.01522,95.086024 L 377.64941,100.37124 L 402.90097,98.609497 L 406.26312,102.54086 L 413.27993,99.291947 L 424.39053,98.109964 L 431.71879,93.382049 L 435.97392,93.618444 L 441.17463,89.126925 L 452.52162,90.781695 L 460.79547,90.781695 L 461.06289,90.965677 L 466.7642,89.869272 L 468.07989,92.719927 L 473.34263,91.842802 L 473.12335,95.570581 L 474.8776,98.201955 L 487.15735,87.457179 L 487.15735,85.264368 L 493.07794,81.536589 L 493.29722,74.958154 L 512.15539,72.1075 L 516.32174,69.037564 L 522.24233,56.977101 L 479.92107,30.663364 L 476.85113,30.224802 L 470.49198,35.706831 L 462.59786,26.935585 L 435.407,34.171863 L 413.69816,26.05846 L 400.97986,18.602902 L 377.51678,21.014994 L 377.51678,23.646368 L 370.49978,29.566959 L 366.55272,26.497023 L 368.52625,23.207806 L 363.70206,22.330681 L 362.82494,25.400617 L 358.00075,24.08493 L 354.05369,25.839179 L 353.61513,29.347678 L 357.12363,34.829706 L 366.99128,42.504546 L 363.70206,43.600952 L 364.35991,47.986574 L 360.41285,50.398667 L 357.12363,42.504546 L 354.49226,42.723827 L 352.29944,44.916638 L 345.28245,48.425137 L 344.84389,54.78429 L 347.47526,58.073507 L 338.26545,63.336254 L 341.11611,67.941158 L 334.31839,73.861749 L 334.78049,80.600632 z "
     style="fill:#80a;fill-opacity:1;fill-rule:evenodd;stroke:black;stroke-width:0.2;stroke-linecap:butt;stroke-linejoin:miter;stroke-miterlimit:4;stroke-dasharray:none;stroke-opacity:1"
     id="Lo Barnechea" />
  <path
     d="M 187.1861,71.367292 L 187.1861,77.546741 L 192.54939,92.703882 L 199.64701,93.817215 L 232.80925,108.37625 L 256.16682,119.50301 L 292.21359,147.87933 C 292.63484,144.66478 291.86159,141.24862 292.52407,138.04504 L 296.59747,132.06357 L 301.17316,128.25049 L 301.36382,123.29349 L 301.74513,123.929 L 295.6442,117.82807 L 292.84794,118.33648 L 288.78065,115.03181 L 295.8984,115.03181 L 296.15261,111.21873 L 287.00121,110.20191 L 287.50963,108.16827 L 293.61055,101.81313 L 286.74701,101.05052 L 285.98439,103.33836 L 282.93393,103.33836 L 282.42552,104.60939 L 279.62926,104.10098 L 278.61244,108.16827 L 265.39376,102.57575 L 267.1732,88.848655 L 263.36012,84.018753 L 258.78442,83.764548 L 253.44611,87.069218 L 249.63303,95.457995 L 245.56574,94.949584 L 243.5321,99.525277 L 236.41435,96.220611 L 238.70219,90.628093 L 234.1265,90.373887 L 237.68537,80.459878 L 235.90594,77.663619 L 228.78818,77.917824 L 228.78818,74.104744 L 220.39941,72.071101 L 223.44987,61.902886 L 219.63679,58.344011 L 220.39941,56.310368 L 214.29848,53.259903 L 213.53586,56.310368 L 209.97699,56.310368 L 209.21437,55.039341 L 207.18073,55.039341 L 207.94334,57.581395 L 203.62185,61.902886 L 199.55457,61.902886 L 200.06298,64.44494 L 197.01251,67.495404 L 193.45364,67.495404 L 191.6742,71.56269 L 187.1861,71.367292 z "
     style="fill:#f59;fill-opacity:1;fill-rule:evenodd;stroke:black;stroke-width:0.2;stroke-linecap:butt;stroke-linejoin:miter;stroke-miterlimit:4;stroke-dasharray:none;stroke-opacity:1"
     id="Huechuraba" />
  <text
     x="177.80383"
     y="241.33711"
     style="font-size:10px;font-style:normal;font-variant:normal;font-weight:normal;font-stretch:normal;text-align:center;line-height:100%;writing-mode:lr-tb;text-anchor:middle;fill:black;fill-opacity:1;stroke:none;stroke-width:1px;stroke-linecap:butt;stroke-linejoin:miter;stroke-opacity:1;font-family:Calibri"
     id="text1953"
     xml:space="preserve"><tspan
       x="177.80383"
       y="241.33711"
       id="tspan1955">Estación</tspan><tspan
       x="177.80383"
       y="251.33711"
       id="tspan1957">Central</tspan></text>
  <text
     x="238.22977"
     y="226.83617"
     style="font-size:10px;font-style:normal;font-variant:normal;font-weight:normal;font-stretch:normal;text-align:center;line-height:100%;writing-mode:lr-tb;text-anchor:middle;fill:black;fill-opacity:1;stroke:none;stroke-width:1px;stroke-linecap:butt;stroke-linejoin:miter;stroke-opacity:1;font-family:Calibri"
     id="text1976"
     xml:space="preserve"><tspan
       x="238.22977"
       y="226.83617"
       id="tspan1978">Santiago</tspan></text>
  <text
     x="106.64567"
     y="324.55463"
     style="font-size:10px;font-style:normal;font-variant:normal;font-weight:normal;font-stretch:normal;text-align:center;line-height:100%;writing-mode:lr-tb;text-anchor:middle;fill:black;fill-opacity:1;stroke:none;stroke-width:1px;stroke-linecap:butt;stroke-linejoin:miter;stroke-opacity:1;font-family:Calibri"
     id="text1992"
     xml:space="preserve"><tspan
       x="106.64567"
       y="324.55463"
       id="tspan1994">Maipú</tspan></text>
  <text
     x="150.92828"
     y="219.2426"
     style="font-size:10px;font-style:normal;font-variant:normal;font-weight:normal;font-stretch:normal;text-align:center;line-height:100%;writing-mode:lr-tb;text-anchor:middle;fill:black;fill-opacity:1;stroke:none;stroke-width:1px;stroke-linecap:butt;stroke-linejoin:miter;stroke-opacity:1;font-family:Calibri"
     id="text1996"
     xml:space="preserve"><tspan
       x="150.92828"
       y="219.2426"
       id="tspan1998">Lo Prado</tspan></text>
  <text
     x="81.294685"
     y="204.04897"
     style="font-size:10px;font-style:normal;font-variant:normal;font-weight:normal;font-stretch:normal;text-align:center;line-height:100%;writing-mode:lr-tb;text-anchor:middle;fill:black;fill-opacity:1;stroke:none;stroke-width:1px;stroke-linecap:butt;stroke-linejoin:miter;stroke-opacity:1;font-family:Calibri"
     id="text2000"
     xml:space="preserve"><tspan
       x="81.294685"
       y="204.04897"
       id="tspan2002">Pudahuel</tspan></text>
  <text
     x="117.62771"
     y="180.08286"
     style="font-size:10px;font-style:normal;font-variant:normal;font-weight:normal;font-stretch:normal;text-align:center;line-height:100%;writing-mode:lr-tb;text-anchor:middle;fill:black;fill-opacity:1;stroke:none;stroke-width:1px;stroke-linecap:butt;stroke-linejoin:miter;stroke-opacity:1;font-family:Calibri"
     id="text2004"
     xml:space="preserve"><tspan
       x="117.62771"
       y="180.08286"
       id="tspan2006">Cerro Navia</tspan></text>
  <text
     x="163.89255"
     y="297.5213"
     style="font-size:10px;font-style:normal;font-variant:normal;font-weight:normal;font-stretch:normal;text-align:center;line-height:100%;writing-mode:lr-tb;text-anchor:middle;fill:black;fill-opacity:1;stroke:none;stroke-width:1px;stroke-linecap:butt;stroke-linejoin:miter;stroke-opacity:1;font-family:Calibri"
     id="text2008"
     xml:space="preserve"><tspan
       x="163.89255"
       y="297.5213"
       id="tspan2010">Cerrillos</tspan></text>
  <text
     x="46.610168"
     y="400.99057"
     style="font-size:10px;font-style:normal;font-variant:normal;font-weight:normal;font-stretch:normal;text-align:center;line-height:100%;writing-mode:lr-tb;text-anchor:middle;fill:black;fill-opacity:1;stroke:none;stroke-width:1px;stroke-linecap:butt;stroke-linejoin:miter;stroke-opacity:1;font-family:Calibri"
     id="text2012"
     xml:space="preserve"><tspan
       x="46.610168"
       y="400.99057"
       id="tspan2014">Padre</tspan><tspan
       x="46.610168"
       y="410.99057"
       id="tspan2016">Hurtado</tspan></text>
  <text
     x="180.33199"
     y="185.27696"
     style="font-size:10px;font-style:normal;font-variant:normal;font-weight:normal;font-stretch:normal;text-align:center;line-height:100%;writing-mode:lr-tb;text-anchor:middle;fill:black;fill-opacity:1;stroke:none;stroke-width:1px;stroke-linecap:butt;stroke-linejoin:miter;stroke-opacity:1;font-family:Calibri"
     id="text2018"
     xml:space="preserve"><tspan
       x="180.33199"
       y="185.27696"
       id="tspan2020">Quinta</tspan><tspan
       x="180.33199"
       y="195.27696"
       id="tspan2022">Normal</tspan></text>
  <text
     x="145.62349"
     y="150.99997"
     style="font-size:10px;font-style:normal;font-variant:normal;font-weight:normal;font-stretch:normal;text-align:center;line-height:100%;writing-mode:lr-tb;text-anchor:middle;fill:black;fill-opacity:1;stroke:none;stroke-width:1px;stroke-linecap:butt;stroke-linejoin:miter;stroke-opacity:1;font-family:Calibri"
     id="text2024"
     xml:space="preserve"><tspan
       x="145.62349"
       y="150.99997"
       id="tspan2026">Renca</tspan></text>
  <text
     x="147.08098"
     y="83.898308"
     style="font-size:10px;font-style:normal;font-variant:normal;font-weight:normal;font-stretch:normal;text-align:center;line-height:100%;writing-mode:lr-tb;text-anchor:middle;fill:black;fill-opacity:1;stroke:none;stroke-width:1px;stroke-linecap:butt;stroke-linejoin:miter;stroke-opacity:1;font-family:Calibri"
     id="text2028"
     xml:space="preserve"><tspan
       x="147.08098"
       y="83.898308"
       id="tspan2030">Quilicura</tspan></text>
  <text
     x="211.29944"
     y="123.258"
     style="font-size:10px;font-style:normal;font-variant:normal;font-weight:normal;font-stretch:normal;text-align:center;line-height:100%;writing-mode:lr-tb;text-anchor:middle;fill:black;fill-opacity:1;stroke:none;stroke-width:1px;stroke-linecap:butt;stroke-linejoin:miter;stroke-opacity:1;font-family:Calibri"
     id="text2032"
     xml:space="preserve"><tspan
       x="211.29944"
       y="123.258"
       id="tspan2034">Conchalí</tspan></text>
  <text
     x="222.69302"
     y="165.72505"
     style="font-size:10px;font-style:normal;font-variant:normal;font-weight:normal;font-stretch:normal;text-align:center;line-height:80.00000119%;writing-mode:lr-tb;text-anchor:middle;fill:black;fill-opacity:1;stroke:none;stroke-width:1px;stroke-linecap:butt;stroke-linejoin:miter;stroke-opacity:1;font-family:Calibri"
     id="text2036"
     xml:space="preserve"><tspan
       x="222.69302"
       y="165.72505"
       style="text-align:center;line-height:80.00000119%;writing-mode:lr-tb;text-anchor:middle"
       id="tspan2038">Indepen</tspan><tspan
       x="222.69302"
       y="173.72505"
       style="text-align:center;line-height:80.00000119%;writing-mode:lr-tb;text-anchor:middle"
       id="tspan2040">dencia</tspan></text>
  <text
     x="261.45963"
     y="155.44829"
     style="font-size:10px;font-style:normal;font-variant:normal;font-weight:normal;font-stretch:normal;text-align:center;line-height:100%;writing-mode:lr-tb;text-anchor:middle;fill:black;fill-opacity:1;stroke:none;stroke-width:1px;stroke-linecap:butt;stroke-linejoin:miter;stroke-opacity:1;font-family:Calibri"
     id="text2042"
     xml:space="preserve"><tspan
       x="261.45963"
       y="155.44829"
       id="tspan2044">Recoleta</tspan></text>
  <text
     x="244.40947"
     y="103.92411"
     style="font-size:10px;font-style:normal;font-variant:normal;font-weight:normal;font-stretch:normal;text-align:center;line-height:100%;writing-mode:lr-tb;text-anchor:middle;fill:black;fill-opacity:1;stroke:none;stroke-width:1px;stroke-linecap:butt;stroke-linejoin:miter;stroke-opacity:1;font-family:Calibri"
     id="text2046"
     xml:space="preserve"><tspan
       x="244.40947"
       y="103.92411"
       id="tspan2048">Huechuraba</tspan></text>
  <text
     x="343.80453"
     y="116.73499"
     style="font-size:10px;font-style:normal;font-variant:normal;font-weight:normal;font-stretch:normal;text-align:center;line-height:100%;writing-mode:lr-tb;text-anchor:middle;fill:black;fill-opacity:1;stroke:none;stroke-width:1px;stroke-linecap:butt;stroke-linejoin:miter;stroke-opacity:1;font-family:Calibri"
     id="text2050"
     xml:space="preserve"><tspan
       x="343.80453"
       y="116.73499"
       id="tspan2052">Vitacura</tspan></text>
  <text
     x="412.24106"
     y="163.65347"
     style="font-size:10px;font-style:normal;font-variant:normal;font-weight:normal;font-stretch:normal;text-align:center;line-height:100%;writing-mode:lr-tb;text-anchor:middle;fill:black;fill-opacity:1;stroke:none;stroke-width:1px;stroke-linecap:butt;stroke-linejoin:miter;stroke-opacity:1;font-family:Calibri"
     id="text2054"
     xml:space="preserve"><tspan
       x="412.24106"
       y="163.65347"
       id="tspan2056">Las Condes</tspan></text>
  <text
     x="428.22421"
     y="63.926373"
     style="font-size:10px;font-style:normal;font-variant:normal;font-weight:normal;font-stretch:normal;text-align:center;line-height:100%;writing-mode:lr-tb;text-anchor:middle;fill:black;fill-opacity:1;stroke:none;stroke-width:1px;stroke-linecap:butt;stroke-linejoin:miter;stroke-opacity:1;font-family:Calibri"
     id="text2058"
     xml:space="preserve"><tspan
       x="428.22421"
       y="63.926373"
       id="tspan2060">Lo Barnechea</tspan></text>
  <text
     x="386.59741"
     y="215.10437"
     style="font-size:10px;font-style:normal;font-variant:normal;font-weight:normal;font-stretch:normal;text-align:center;line-height:100%;writing-mode:lr-tb;text-anchor:middle;fill:black;fill-opacity:1;stroke:none;stroke-width:1px;stroke-linecap:butt;stroke-linejoin:miter;stroke-opacity:1;font-family:Calibri"
     id="text2062"
     xml:space="preserve"><tspan
       x="386.59741"
       y="215.10437"
       id="tspan2064">La Reina</tspan></text>
  <text
     x="293.65884"
     y="190.38852"
     style="font-size:10px;font-style:normal;font-variant:normal;font-weight:normal;font-stretch:normal;text-align:center;line-height:100%;writing-mode:lr-tb;text-anchor:middle;fill:black;fill-opacity:1;stroke:none;stroke-width:1px;stroke-linecap:butt;stroke-linejoin:miter;stroke-opacity:1;font-family:Calibri"
     id="text2066"
     xml:space="preserve"><tspan
       x="293.65884"
       y="190.38852"
       id="tspan2068">Providencia</tspan></text>
  <text
     x="305.55557"
     y="233.05086"
     style="font-size:10px;font-style:normal;font-variant:normal;font-weight:normal;font-stretch:normal;text-align:center;line-height:100%;writing-mode:lr-tb;text-anchor:middle;fill:black;fill-opacity:1;stroke:none;stroke-width:1px;stroke-linecap:butt;stroke-linejoin:miter;stroke-opacity:1;font-family:Calibri"
     id="text2070"
     xml:space="preserve"><tspan
       x="305.55557"
       y="233.05086"
       id="tspan2072">Ñuñoa</tspan></text>
  <text
     x="391.88052"
     y="273.1893"
     style="font-size:10px;font-style:normal;font-variant:normal;font-weight:normal;font-stretch:normal;text-align:center;line-height:100%;writing-mode:lr-tb;text-anchor:middle;fill:black;fill-opacity:1;stroke:none;stroke-width:1px;stroke-linecap:butt;stroke-linejoin:miter;stroke-opacity:1;font-family:Calibri"
     id="text2074"
     xml:space="preserve"><tspan
       x="391.88052"
       y="273.1893"
       id="tspan2076">Peñalolén</tspan></text>
  <text
     x="306.85461"
     y="279.57562"
     style="font-size:10px;font-style:normal;font-variant:normal;font-weight:normal;font-stretch:normal;text-align:center;line-height:100%;writing-mode:lr-tb;text-anchor:middle;fill:black;fill-opacity:1;stroke:none;stroke-width:1px;stroke-linecap:butt;stroke-linejoin:miter;stroke-opacity:1;font-family:Calibri"
     id="text2078"
     xml:space="preserve"><tspan
       x="306.85461"
       y="279.57562"
       id="tspan2080">Macul</tspan></text>
  <text
     x="336.38547"
     y="348.80139"
     style="font-size:10px;font-style:normal;font-variant:normal;font-weight:normal;font-stretch:normal;text-align:center;line-height:100%;writing-mode:lr-tb;text-anchor:middle;fill:black;fill-opacity:1;stroke:none;stroke-width:1px;stroke-linecap:butt;stroke-linejoin:miter;stroke-opacity:1;font-family:Calibri"
     id="text2082"
     xml:space="preserve"><tspan
       x="336.38547"
       y="348.80139"
       id="tspan2084">La Florida</tspan></text>
  <text
     x="348.82913"
     y="441.76831"
     style="font-size:10px;font-style:normal;font-variant:normal;font-weight:normal;font-stretch:normal;text-align:center;line-height:100%;writing-mode:lr-tb;text-anchor:middle;fill:black;fill-opacity:1;stroke:none;stroke-width:1px;stroke-linecap:butt;stroke-linejoin:miter;stroke-opacity:1;font-family:Calibri"
     id="text2086"
     xml:space="preserve"><tspan
       x="348.82913"
       y="441.76831"
       id="tspan2088">Puente Alto</tspan></text>
  <text
     x="339.73636"
     y="499.2467"
     style="font-size:10px;font-style:normal;font-variant:normal;font-weight:normal;font-stretch:normal;text-align:center;line-height:100%;writing-mode:lr-tb;text-anchor:middle;fill:black;fill-opacity:1;stroke:none;stroke-width:1px;stroke-linecap:butt;stroke-linejoin:miter;stroke-opacity:1;font-family:Calibri"
     id="text2090"
     xml:space="preserve"><tspan
       x="339.73636"
       y="499.2467"
       id="tspan2092">Pirque</tspan></text>
  <text
     x="452.63654"
     y="397.74011"
     style="font-size:10px;font-style:normal;font-variant:normal;font-weight:normal;font-stretch:normal;text-align:center;line-height:100%;writing-mode:lr-tb;text-anchor:middle;fill:black;fill-opacity:1;stroke:none;stroke-width:1px;stroke-linecap:butt;stroke-linejoin:miter;stroke-opacity:1;font-family:Calibri"
     id="text2094"
     xml:space="preserve"><tspan
       x="453.76935"
       y="397.74011"
       id="tspan2096">San José </tspan><tspan
       x="452.63654"
       y="407.74011"
       id="tspan2098">de Maipo</tspan></text>
  <text
     x="262.9454"
     y="425.77777"
     style="font-size:10px;font-style:normal;font-variant:normal;font-weight:normal;font-stretch:normal;text-align:center;line-height:100%;writing-mode:lr-tb;text-anchor:middle;fill:black;fill-opacity:1;stroke:none;stroke-width:1px;stroke-linecap:butt;stroke-linejoin:miter;stroke-opacity:1;font-family:Calibri"
     id="text2100"
     xml:space="preserve"><tspan
       x="262.9454"
       y="425.77777"
       id="tspan2102">La Pintana</tspan></text>
  <text
     x="186.36911"
     y="443.31451"
     style="font-size:10px;font-style:normal;font-variant:normal;font-weight:normal;font-stretch:normal;text-align:center;line-height:100%;writing-mode:lr-tb;text-anchor:middle;fill:black;fill-opacity:1;stroke:none;stroke-width:1px;stroke-linecap:butt;stroke-linejoin:miter;stroke-opacity:1;font-family:Calibri"
     id="text2104"
     xml:space="preserve"><tspan
       x="186.36911"
       y="443.31451"
       id="tspan2106">San Bernardo</tspan></text>
  <text
     x="214.19209"
     y="390.34653"
     style="font-size:10px;font-style:normal;font-variant:normal;font-weight:normal;font-stretch:normal;text-align:center;line-height:100%;writing-mode:lr-tb;text-anchor:middle;fill:black;fill-opacity:1;stroke:none;stroke-width:1px;stroke-linecap:butt;stroke-linejoin:miter;stroke-opacity:1;font-family:Calibri"
     id="text2108"
     xml:space="preserve"><tspan
       x="214.19209"
       y="390.34653"
       id="tspan2110">El Bosque</tspan></text>
  <text
     x="195.54802"
     y="326.27118"
     style="font-size:10px;font-style:normal;font-variant:normal;font-weight:normal;font-stretch:normal;text-align:center;line-height:100%;writing-mode:lr-tb;text-anchor:middle;fill:black;fill-opacity:1;stroke:none;stroke-width:1px;stroke-linecap:butt;stroke-linejoin:miter;stroke-opacity:1;font-family:Calibri"
     id="text2112"
     xml:space="preserve"><tspan
       x="195.54802"
       y="326.27118"
       id="tspan2114">Lo Espejo</tspan></text>
  <text
     x="210.94653"
     y="274.41055"
     style="font-size:10px;font-style:normal;font-variant:normal;font-weight:normal;font-stretch:normal;text-align:center;line-height:100%;writing-mode:lr-tb;text-anchor:middle;fill:black;fill-opacity:1;stroke:none;stroke-width:1px;stroke-linecap:butt;stroke-linejoin:miter;stroke-opacity:1;font-family:Calibri"
     id="text2116"
     xml:space="preserve"><tspan
       x="210.94653"
       y="274.41055"
       id="tspan2118">Pedro</tspan><tspan
       x="210.94653"
       y="284.41055"
       id="tspan2120">Aguirre</tspan><tspan
       x="210.94653"
       y="294.41055"
       id="tspan2122">Cerda</tspan></text>
  <text
     x="239.95775"
     y="286.64233"
     style="font-size:10px;font-style:normal;font-variant:normal;font-weight:normal;font-stretch:normal;text-align:center;line-height:100%;writing-mode:lr-tb;text-anchor:middle;fill:black;fill-opacity:1;stroke:none;stroke-width:1px;stroke-linecap:butt;stroke-linejoin:miter;stroke-opacity:1;font-family:Calibri"
     id="text2124"
     xml:space="preserve"><tspan
       x="239.95775"
       y="286.64233"
       id="tspan2126">San</tspan><tspan
       x="239.95775"
       y="296.64233"
       id="tspan2128">Miguel</tspan></text>
  <text
     x="226.8786"
     y="335.58875"
     style="font-size:10px;font-style:normal;font-variant:normal;font-weight:normal;font-stretch:normal;text-align:center;line-height:100%;writing-mode:lr-tb;text-anchor:middle;fill:black;fill-opacity:1;stroke:none;stroke-width:1px;stroke-linecap:butt;stroke-linejoin:miter;stroke-opacity:1;font-family:Calibri"
     id="text2130"
     xml:space="preserve"><tspan
       x="226.8786"
       y="335.58875"
       id="tspan2132">La</tspan><tspan
       x="226.8786"
       y="345.58875"
       id="tspan2134">Cisterna</tspan></text>
  <text
     x="254.80226"
     y="356.09415"
     style="font-size:10px;font-style:normal;font-variant:normal;font-weight:normal;font-stretch:normal;text-align:center;line-height:100%;writing-mode:lr-tb;text-anchor:middle;fill:black;fill-opacity:1;stroke:none;stroke-width:1px;stroke-linecap:butt;stroke-linejoin:miter;stroke-opacity:1;font-family:Calibri"
     id="text2136"
     xml:space="preserve"><tspan
       x="254.80226"
       y="356.09415"
       id="tspan2140">San</tspan><tspan
       x="254.80226"
       y="366.09415"
       id="tspan2144">Ramón</tspan></text>
  <text
     x="274.30002"
     y="281.9585"
     style="font-size:10px;font-style:normal;font-variant:normal;font-weight:normal;font-stretch:normal;text-align:center;line-height:100%;writing-mode:lr-tb;text-anchor:middle;fill:black;fill-opacity:1;stroke:none;stroke-width:1px;stroke-linecap:butt;stroke-linejoin:miter;stroke-opacity:1;font-family:Calibri"
     id="text2146"
     xml:space="preserve"><tspan
       x="274.30002"
       y="281.9585"
       id="tspan2148">San</tspan><tspan
       x="274.30002"
       y="291.9585"
       id="tspan2150">Joaquín</tspan></text>
  <text
     x="280.28"
     y="339.26773"
     style="font-size:10px;font-style:normal;font-variant:normal;font-weight:normal;font-stretch:normal;text-align:center;line-height:100%;writing-mode:lr-tb;text-anchor:middle;fill:black;fill-opacity:1;stroke:none;stroke-width:1px;stroke-linecap:butt;stroke-linejoin:miter;stroke-opacity:1;font-family:Calibri"
     id="text2152"
     xml:space="preserve"><tspan
       x="281.41281"
       y="339.26773"
       id="tspan2154">La </tspan><tspan
       x="280.28"
       y="349.26773"
       id="tspan2156">Granja</tspan></text>
</svg>
